<svg xmlns="http://www.w3.org/2000/svg" viewBox="0 0 422.13 380.17"><defs><style>.cls-1{fill:#1b1719;}</style></defs><g id="Layer_2" data-name="Layer 2"><g id="Layer_1-2" data-name="Layer 1"><path class="cls-1" d="M209.21,369,30.3,190.08,209.21,11.17l113,113,7.82-7.82L216.86,3.17a10.82,10.82,0,0,0-15.3,0L6.29,198.44c-4.22,4.22,11.79-4.93,16-.71L201.56,377a10.82,10.82,0,0,0,15.3,0l115.7-115.7-7.82-7.83Z"/><polygon class="cls-1" points="0 256.21 11.06 245.35 11.06 134.12 0.01 123.08 0 256.21"/><polygon class="cls-1" points="181.98 135.33 229.38 135.41 229.39 124.34 155.55 124.23 221.03 190.86 156.41 255.48 231.71 255.48 231.71 244.42 183.13 244.42 236.62 190.93 181.98 135.33"/><polygon class="cls-1" points="194.28 190.62 138.82 134.19 139.14 172.45 150.29 183.61 150.11 161.47 178.69 190.55 150.59 218.66 150.41 197.84 139.44 208.81 139.74 245.15 194.28 190.62"/><path class="cls-1" d="M54.4,190.78,99.57,236l45.16-45.17L99.57,145.62ZM99.57,220.3,70.05,190.78l29.52-29.51,29.51,29.51Z"/><polygon class="cls-1" points="326.03 133.46 318.43 141.28 300.74 123.81 284.88 123.81 312.49 150.9 312.49 199.44 312.53 199.44 312.53 249.31 323.56 237.3 323.73 237.11 323.58 198.5 323.56 198.51 323.56 171.51 323.56 171.51 323.56 151.87 341.43 133.5 341.39 133.46 326.03 133.46"/><polygon class="cls-1" points="422.13 134.27 422.09 134.32 422.1 123.43 377.86 164.25 347.88 134.27 347.88 197.2 347.93 197.2 347.93 205.66 347.93 213.92 347.93 245.44 359.13 234.6 359 201.86 359.13 201.72 358.97 163.11 358.94 163.14 358.94 160.98 377.55 179.59 411.01 148.72 410.93 241.03 410.96 241.03 410.96 242.77 422.12 254.45 422.12 147.48 422.12 147.48 422.13 134.27"/><polygon class="cls-1" points="249.17 150.88 249.09 254.26 260.15 254.27 260.21 178.26 304.53 224.19 304.53 197.36 304.61 197.44 304.62 157.34 293.45 146.25 293.42 184.91 293.47 184.97 293.47 196.79 249.17 150.88"/></g></g></svg>